<svg xmlns="http://www.w3.org/2000/svg" version="1.1" viewBox="85.5 180 402.5 74.88"><path d="M 111.762 180.707 C 113.006 180.946, 114.806 180.937, 115.762 180.687 C 116.718 180.437, 115.700 180.241, 113.500 180.252 C 111.300 180.263, 110.518 180.468, 111.762 180.707 M 146 181.898 C 146 182.942, 147.120 185.754, 148.488 188.148 C 149.856 190.542, 150.980 192.050, 150.984 191.500 C 150.989 190.950, 150.094 189.027, 148.996 187.226 C 145.048 180.750, 144.322 180.937, 172.250 181.233 L 197.500 181.500 197.798 187.750 C 198.081 193.695, 197.983 193.999, 195.798 193.978 C 194.534 193.966, 192.375 193.076, 191 192 C 189.625 190.924, 187.825 190.070, 187 190.101 C 185.667 190.152, 185.667 190.221, 187 190.728 C 187.825 191.042, 189.573 192.131, 190.885 193.149 C 192.197 194.167, 194.559 195, 196.135 195 L 199 195 199 187.500 L 199 180 172.500 180 C 147.142 180, 146 180.082, 146 181.898 M 202.998 180.750 C 202.997 181.162, 208.510 181.383, 215.248 181.239 C 237.572 180.764, 239.730 180.388, 221.250 180.193 C 211.213 180.087, 202.999 180.338, 202.998 180.750 M 264.358 181.510 C 263.834 182.874, 268.293 190, 269.670 190 C 269.982 190, 268.999 188.376, 267.485 186.392 C 263.911 181.705, 264.956 181.035, 275.875 181.015 L 284.250 181 283.519 184.250 C 282.012 190.952, 282.025 192.343, 283.550 187.636 C 285.924 180.312, 285.555 180, 274.500 180 C 266.894 180, 264.819 180.309, 264.358 181.510 M 323.999 180.750 C 323.999 181.162, 326.293 181.341, 329.096 181.147 C 336.048 180.665, 337.344 182.179, 333.211 185.955 C 331.445 187.568, 330 189.318, 330 189.844 C 330 190.370, 331.575 189.225, 333.500 187.300 C 335.425 185.375, 337 182.945, 337 181.900 C 337 180.228, 336.219 180, 330.500 180 C 326.925 180, 324 180.338, 323.999 180.750 M 340 181.910 C 340 182.997, 341.012 185.599, 342.250 187.693 C 344.375 191.289, 344.530 192.885, 345.041 216.500 L 345.582 241.500 345.791 217.372 C 345.959 197.939, 345.711 192.553, 344.515 189.691 C 343.698 187.736, 342.573 185.854, 342.015 185.509 C 341.457 185.164, 341 184.009, 341 182.941 C 341 181.149, 341.768 181, 351.031 181 C 362.281 181, 363.777 181.925, 360.096 186.605 C 358.943 188.071, 358 189.763, 358 190.367 C 358 190.970, 359.154 189.766, 360.565 187.689 C 364.969 181.208, 364.137 180.542, 351.238 180.217 C 340.618 179.950, 340 180.043, 340 181.910 M 369.022 182.250 C 369.034 183.488, 369.924 185.625, 371 187 C 372.076 188.375, 373.001 190.175, 373.057 191 C 373.126 192.028, 373.316 192.108, 373.662 191.252 C 373.939 190.565, 373.171 188.395, 371.956 186.429 C 370.543 184.142, 370.093 182.507, 370.707 181.893 C 371.287 181.313, 381.667 181.045, 396.835 181.216 C 410.677 181.372, 422.001 181.162, 422.001 180.750 C 422 180.338, 410.075 180, 395.500 180 L 369 180 369.022 182.250 M 423 180.750 C 423 181.162, 427.725 181.500, 433.500 181.500 C 439.275 181.500, 444 181.162, 444 180.750 C 444 180.338, 439.275 180, 433.500 180 C 427.725 180, 423 180.338, 423 180.750 M 475.015 182.250 C 475.024 183.488, 475.460 185.175, 475.984 186 C 476.694 187.117, 476.882 186.735, 476.719 184.500 L 476.500 181.500 482.252 181.500 C 485.415 181.500, 488.003 181.162, 488.002 180.750 C 488.001 180.338, 485.075 180, 481.500 180 C 475.421 180, 475.001 180.146, 475.015 182.250 M 98 183.958 C 92.755 186.760, 88.116 192.079, 87.474 196.027 L 86.908 199.500 88.375 195.637 C 90.419 190.255, 94.497 186.338, 100.437 184.052 C 103.222 182.981, 104.600 182.101, 103.500 182.096 C 102.400 182.092, 99.925 182.930, 98 183.958 M 129.804 184.146 C 133.978 186.063, 134.100 186.251, 133.804 190.312 C 133.404 195.816, 130.467 196.524, 126.969 191.960 C 124.497 188.734, 119.256 185.411, 118.240 186.426 C 117.925 186.742, 118.211 187, 118.876 187 C 119.541 187, 122.286 189.058, 124.975 191.573 C 128.799 195.151, 130.477 196.076, 132.682 195.823 C 135.282 195.525, 135.524 195.131, 135.805 190.738 L 136.111 185.976 131.472 183.988 C 125.496 181.427, 124.160 181.553, 129.804 184.146 M 246.585 184.468 C 253.035 188.334, 256.262 193.845, 257.045 202.330 L 257.707 209.500 257.853 203.462 C 257.962 198.970, 257.424 196.285, 255.750 192.976 C 253.609 188.743, 246.170 181.989, 243.672 182.009 C 243.028 182.015, 244.338 183.121, 246.585 184.468 M 203.005 183.356 C 203.002 183.826, 204.125 185.548, 205.500 187.182 C 206.875 188.816, 207.984 189.781, 207.964 189.327 C 207.915 188.192, 203.011 182.288, 203.005 183.356 M 220 203 L 220 222 228.184 222 C 234.463 222, 237.382 221.509, 240.721 219.893 C 244.957 217.842, 250 211.982, 250 209.111 C 250 208.327, 248.964 209.645, 247.697 212.040 C 244.315 218.435, 238.919 221, 228.843 221 L 221 221 221 203.046 L 221 185.091 227.750 184.742 L 234.500 184.392 227.250 184.196 L 220 184 220 203 M 442.667 184.667 C 440.571 186.762, 442.740 192.598, 449.479 203 C 451.083 205.475, 453.843 209.885, 455.613 212.800 L 458.831 218.101 460.471 215.800 C 470.515 201.717, 476.570 192.529, 475.285 193.324 C 474.792 193.628, 471.062 198.855, 466.996 204.939 C 462.929 211.022, 459.354 215.991, 459.051 215.981 C 458.748 215.970, 454.965 210.098, 450.644 202.931 C 444.423 192.612, 442.878 189.286, 443.221 186.950 C 443.689 183.761, 443.666 183.667, 442.667 184.667 M 484.691 186.250 C 482.080 188.676, 470.141 205.649, 471.741 204.660 C 472.272 204.332, 475.080 200.562, 477.981 196.282 C 480.882 192.002, 484.435 187.490, 485.878 186.255 C 487.320 185.020, 488.188 184.008, 487.806 184.005 C 487.424 184.002, 486.022 185.012, 484.691 186.250 M 102.241 187.777 C 100.449 189.275, 98.986 190.922, 98.991 191.437 C 98.996 191.952, 100.284 191.144, 101.854 189.640 C 103.424 188.136, 106.012 186.515, 107.604 186.038 C 110.374 185.210, 110.391 185.169, 108 185.113 C 106.625 185.080, 104.033 186.279, 102.241 187.777 M 427.110 187.167 C 428.546 188.450, 431.353 192.088, 433.348 195.250 C 435.343 198.412, 437.207 201, 437.491 201 C 438.873 201, 430.115 188.585, 427.500 186.839 L 424.500 184.835 427.110 187.167 M 163 217.500 L 163 249 169.250 248.811 L 175.500 248.622 169.750 248.261 L 164 247.900 164 217.325 L 164 186.749 172.693 187.205 C 177.475 187.456, 180.512 187.319, 179.443 186.901 C 178.374 186.483, 174.238 186.109, 170.250 186.070 L 163 186 163 217.500 M 243.237 189.166 C 245.293 191, 247.652 193.850, 248.481 195.500 C 249.310 197.150, 249.990 197.785, 249.994 196.911 C 250.003 194.632, 244.943 188.352, 242 186.990 C 240.086 186.103, 240.376 186.613, 243.237 189.166 M 386.221 200.750 L 386 216 393.500 216 C 400.275 216, 401 216.189, 401 217.954 C 401 219.666, 400.161 219.952, 394.250 220.258 L 387.500 220.608 394.750 220.804 L 402 221 402 218 L 402 215 394.527 215 L 387.053 215 386.748 200.250 L 386.442 185.500 386.221 200.750 M 398.500 187 C 400.150 187.420, 402.400 187.772, 403.500 187.782 C 405.067 187.797, 404.959 187.627, 403 187 C 401.625 186.560, 399.375 186.208, 398 186.218 C 395.754 186.235, 395.805 186.314, 398.500 187 M 421.526 190.750 C 420.666 194.352, 418.732 194.901, 415.322 192.513 C 413.191 191.021, 407.069 188.402, 408.084 189.418 C 409.586 190.919, 418.358 195, 420.084 195 C 422.378 195, 423.338 193.122, 422.730 189.823 C 422.350 187.759, 422.216 187.863, 421.526 190.750 M 324.789 191.526 C 324.480 192.612, 323.922 194.400, 323.550 195.500 C 323.177 196.600, 323.605 196.236, 324.500 194.690 C 325.395 193.145, 325.952 191.356, 325.739 190.716 C 325.525 190.075, 325.098 190.440, 324.789 191.526 M 356.825 194.502 C 356.453 196.154, 356.101 206.965, 356.042 218.528 L 355.936 239.552 359.037 245.759 C 360.743 249.173, 361.856 252.424, 361.511 252.983 C 361.165 253.542, 361.359 254, 361.941 254 C 363.636 254, 363.175 251.410, 360.750 247.307 C 358.613 243.691, 358.475 242.196, 358 217.500 C 357.725 203.200, 357.196 192.851, 356.825 194.502 M 98.137 194.500 C 98.063 195.600, 99.039 197.705, 100.305 199.178 C 102.613 201.860, 118.859 212.474, 119.570 211.763 C 119.778 211.555, 116.922 209.618, 113.224 207.457 C 105.003 202.654, 99.266 197.612, 98.698 194.689 C 98.316 192.725, 98.259 192.705, 98.137 194.500 M 151.434 217.500 C 151.433 231.250, 151.574 237.014, 151.747 230.308 C 151.919 223.603, 151.920 212.353, 151.748 205.308 C 151.576 198.264, 151.434 203.750, 151.434 217.500 M 374.434 217.500 C 374.433 231.250, 374.574 237.014, 374.747 230.308 C 374.919 223.603, 374.920 212.353, 374.748 205.308 C 374.576 198.264, 374.434 203.750, 374.434 217.500 M 325.490 201.679 C 324.644 203.702, 324.083 205.749, 324.243 206.228 C 324.402 206.706, 325.291 205.051, 326.218 202.549 C 328.233 197.112, 327.676 196.447, 325.490 201.679 M 250.272 203 C 250.272 205.475, 250.467 206.488, 250.706 205.250 C 250.944 204.012, 250.944 201.988, 250.706 200.750 C 250.467 199.512, 250.272 200.525, 250.272 203 M 87.022 200.800 C 86.963 204.278, 91.376 209.751, 97.250 213.483 C 101.669 216.290, 100.415 214.637, 95.387 211.026 C 92.584 209.013, 90.042 206.102, 88.909 203.607 C 87.883 201.348, 87.034 200.085, 87.022 200.800 M 318.650 208.150 C 317.192 212.100, 316.165 215.499, 316.370 215.703 C 316.574 215.907, 317.937 212.846, 319.400 208.900 C 320.863 204.954, 321.889 201.555, 321.680 201.347 C 321.472 201.139, 320.108 204.200, 318.650 208.150 M 438 202.755 C 438 203.305, 438.675 204.315, 439.500 205 C 440.337 205.694, 441 205.803, 441 205.245 C 441 204.695, 440.325 203.685, 439.500 203 C 438.663 202.306, 438 202.197, 438 202.755 M 287.035 204.135 C 287.016 204.485, 287.657 206.285, 288.461 208.135 C 289.264 209.986, 289.923 210.825, 289.925 210 C 289.929 208.559, 287.108 202.834, 287.035 204.135 M 276.511 207.500 C 278.550 213.665, 281.367 220.629, 282.172 221.499 C 283.251 222.663, 278.331 209.289, 276.849 207.026 C 276.063 205.826, 275.990 205.928, 276.511 207.500 M 441.539 208.095 C 442.005 208.868, 443.901 211.883, 445.753 214.795 L 449.120 220.091 448.788 231.295 C 448.606 237.458, 448.062 243.400, 447.581 244.500 C 446.845 246.182, 446.928 246.294, 448.103 245.203 C 449.107 244.270, 449.594 240.557, 449.833 231.988 L 450.166 220.070 446.412 213.989 C 444.347 210.644, 442.216 207.633, 441.675 207.299 C 441.069 206.925, 441.017 207.231, 441.539 208.095 M 321.934 210.750 C 321.374 212.262, 320.196 215.423, 319.314 217.772 C 318.433 220.122, 317.900 222.234, 318.132 222.465 C 318.363 222.696, 319.757 219.536, 321.229 215.443 C 322.701 211.349, 323.691 208, 323.428 208 C 323.166 208, 322.493 209.238, 321.934 210.750 M 466.705 211.250 C 460.866 219.168, 460.988 218.720, 461.191 231.473 L 461.382 243.500 461.941 230.968 L 462.500 218.436 466.335 213.218 C 468.445 210.348, 469.930 208, 469.636 208 C 469.342 208, 468.023 209.463, 466.705 211.250 M 255.002 212.995 C 254.305 214.678, 251.882 217.680, 249.617 219.666 C 247.353 221.652, 246.400 222.674, 247.500 221.936 C 252.718 218.437, 258.062 211.728, 256.708 210.375 C 256.467 210.133, 255.699 211.313, 255.002 212.995 M 122.500 213.518 C 123.600 214.414, 125.400 215.588, 126.500 216.128 L 128.500 217.110 126.500 215.482 C 125.400 214.586, 123.600 213.412, 122.500 212.872 L 120.500 211.890 122.500 213.518 M 292.079 217.691 C 292.036 218.896, 292.415 220.139, 292.923 220.452 C 293.431 220.766, 294.173 222.480, 294.573 224.261 C 294.973 226.043, 295.488 226.958, 295.718 226.295 C 295.948 225.632, 295.471 223.607, 294.658 221.795 C 293.845 219.983, 292.949 217.825, 292.669 217 C 292.340 216.035, 292.130 216.281, 292.079 217.691 M 108 219.414 C 108 219.642, 110.250 221.213, 113 222.905 C 119.190 226.714, 119.555 226.166, 113.570 222.048 C 109.336 219.135, 108 218.503, 108 219.414 M 191.250 220.739 C 194.412 220.937, 199.588 220.937, 202.750 220.739 C 205.912 220.541, 203.325 220.378, 197 220.378 C 190.675 220.378, 188.088 220.541, 191.250 220.739 M 178.762 221.707 C 180.006 221.946, 181.806 221.937, 182.762 221.687 C 183.718 221.437, 182.700 221.241, 180.500 221.252 C 178.300 221.263, 177.518 221.468, 178.762 221.707 M 386.151 231 C 386.085 236.775, 386.382 242.052, 386.811 242.728 C 387.240 243.403, 387.436 239.578, 387.248 234.228 C 386.755 220.234, 386.291 218.868, 386.151 231 M 135.007 222.226 C 135.003 222.625, 135.898 224.425, 136.996 226.226 C 138.094 228.027, 138.991 229.050, 138.990 228.500 C 138.988 227.950, 138.093 226.150, 137 224.500 C 135.907 222.850, 135.010 221.827, 135.007 222.226 M 312.741 223.710 C 312.460 224.695, 310.800 229.325, 309.054 234 C 307.307 238.675, 306.282 242.050, 306.776 241.500 C 308.070 240.060, 314.292 222.958, 313.727 222.394 C 313.467 222.134, 313.023 222.726, 312.741 223.710 M 283.070 223.665 C 282.974 225.251, 289.038 241.253, 290.207 242.500 C 290.723 243.050, 289.945 240.350, 288.478 236.500 C 287.011 232.650, 285.210 227.925, 284.476 226 C 283.742 224.075, 283.109 223.024, 283.070 223.665 M 189.250 225.689 C 190.213 225.941, 191.787 225.941, 192.750 225.689 C 193.713 225.438, 192.925 225.232, 191 225.232 C 189.075 225.232, 188.287 225.438, 189.250 225.689 M 202.762 225.707 C 204.006 225.946, 205.806 225.937, 206.762 225.687 C 207.718 225.437, 206.700 225.241, 204.500 225.252 C 202.300 225.263, 201.518 225.468, 202.762 225.707 M 220.667 225.667 C 220.300 226.033, 220 230.650, 220 235.927 C 220 244.861, 220.178 245.712, 222.588 248.311 C 224.011 249.846, 224.925 251.754, 224.619 252.551 C 224.313 253.348, 224.499 254, 225.031 254 C 226.909 254, 225.970 250.320, 223.500 248 C 221.165 245.806, 221 245.009, 221 235.899 C 221 227.452, 221.234 226.085, 222.750 225.689 C 224.152 225.323, 224.185 225.209, 222.917 225.116 C 222.046 225.052, 221.033 225.300, 220.667 225.667 M 226.601 225.976 C 227.756 226.443, 230.382 229.114, 232.436 231.913 C 234.490 234.711, 236.395 237, 236.670 237 C 237.323 237, 229.879 226.723, 228.533 225.765 C 227.965 225.361, 226.825 225.052, 226 225.079 C 225.090 225.108, 225.326 225.461, 226.601 225.976 M 240.859 228.167 C 242.587 229.934, 244 231.674, 244 232.033 C 244 233.735, 259.582 250, 261.212 250 C 261.645 250, 262.052 251.012, 262.116 252.250 C 262.204 253.952, 262.344 254.072, 262.690 252.744 C 262.998 251.565, 261.400 249.387, 257.824 246.111 C 254.896 243.429, 249.835 237.825, 246.579 233.658 C 243.322 229.492, 239.996 225.829, 239.188 225.519 C 238.380 225.208, 239.132 226.400, 240.859 228.167 M 122.249 228.977 C 132.071 237.401, 130.610 245.616, 118.880 247.920 C 115.649 248.555, 115.230 248.810, 117.282 248.890 C 123.490 249.135, 130 244.290, 130 239.425 C 130 236.507, 126.219 231.219, 122 228.236 C 118.501 225.762, 118.501 225.762, 122.249 228.977 M 182.559 227.532 C 180.063 229.420, 180.989 229.408, 184.636 227.506 C 186.211 226.685, 186.825 226.024, 186 226.038 C 185.175 226.052, 183.626 226.724, 182.559 227.532 M 314.225 231.181 C 311.686 238.037, 310.612 241.629, 311.291 241 C 312.199 240.159, 317.054 226.721, 316.611 226.277 C 316.382 226.049, 315.309 228.256, 314.225 231.181 M 172.116 229.750 C 172.021 231.589, 172.526 232, 174.878 232 C 176.460 232, 178.351 231.213, 179.079 230.250 C 180.206 228.761, 180.194 228.687, 179.002 229.750 C 176.942 231.586, 173.223 231.292, 172.689 229.250 C 172.345 227.933, 172.203 228.057, 172.116 229.750 M 298.079 233.128 C 297.977 235.231, 300.954 242.380, 301.644 241.689 C 301.934 241.400, 301.498 239.663, 300.675 237.831 C 299.852 235.999, 298.949 233.825, 298.669 233 C 298.245 231.755, 298.144 231.777, 298.079 233.128 M 88.712 237.721 C 90.613 237.958, 92.858 239.219, 94.212 240.811 C 97.467 244.638, 101.996 248.001, 103.885 247.994 C 104.783 247.990, 104.168 247.299, 102.500 246.436 C 100.850 245.583, 97.683 243.111, 95.462 240.943 C 92.433 237.985, 90.684 237.040, 88.462 237.160 L 85.500 237.320 88.712 237.721 M 240.055 241.918 C 242.835 245.378, 243.133 246.344, 242.605 250.168 C 242.184 253.216, 242.281 253.907, 242.933 252.500 C 244.597 248.907, 244.049 245.387, 241.250 241.697 C 239.738 239.704, 238.141 238.056, 237.703 238.036 C 237.264 238.016, 238.323 239.763, 240.055 241.918 M 187 243.586 C 183.425 245.509, 181.625 246.781, 183 246.413 C 184.375 246.046, 187.340 244.677, 189.588 243.372 C 191.836 242.068, 194.687 241, 195.923 241 C 198.057 241, 198.154 241.329, 197.835 247.502 C 197.651 251.078, 197.858 254.003, 198.296 254.002 C 198.733 254.001, 198.958 250.963, 198.796 247.250 C 198.516 240.859, 198.367 240.489, 196 240.295 C 194.625 240.183, 190.575 241.664, 187 243.586 M 309.162 244.543 C 308.523 245.946, 308.018 247.635, 308.039 248.297 C 308.061 248.959, 308.743 247.969, 309.554 246.099 C 311.263 242.161, 310.902 240.726, 309.162 244.543 M 135.675 244.405 C 134.921 246.369, 126.524 251.997, 124.320 252.015 C 123.319 252.024, 121.825 252.473, 121 253.014 C 119.948 253.704, 120.545 253.800, 123 253.336 C 124.925 252.973, 128.075 251.677, 130 250.457 C 134.077 247.874, 138.836 243, 137.281 243 C 136.694 243, 135.971 243.632, 135.675 244.405 M 148.231 247.231 C 146.998 249.481, 146.137 251.470, 146.317 251.650 C 146.497 251.830, 147.670 250.153, 148.923 247.923 C 150.176 245.693, 151.038 243.704, 150.837 243.504 C 150.636 243.303, 149.464 244.980, 148.231 247.231 M 302 244.250 C 302 245.148, 302.480 246.179, 303.067 246.541 C 304.782 247.601, 304.950 246.652, 303.418 244.557 C 302.232 242.935, 302 242.885, 302 244.250 M 371.217 247.303 C 368.829 251.813, 368.421 254, 369.969 254 C 370.501 254, 370.703 253.390, 370.417 252.645 C 370.131 251.899, 370.876 249.630, 372.072 247.602 C 373.269 245.574, 374.066 243.733, 373.844 243.511 C 373.622 243.288, 372.440 244.995, 371.217 247.303 M 291.785 248.135 C 292.679 250.410, 293.570 251.790, 293.766 251.203 C 294.109 250.173, 291.357 244, 290.555 244 C 290.338 244, 290.892 245.861, 291.785 248.135 M 462 244.633 C 462 245.237, 462.943 246.929, 464.096 248.395 C 465.248 249.860, 465.937 251.721, 465.627 252.529 C 465.317 253.338, 465.499 254, 466.031 254 C 467.746 254, 467.067 250.993, 464.500 247.215 C 463.125 245.191, 462 244.030, 462 244.633 M 206.500 246.364 C 203.548 249.795, 202.990 251.152, 205.508 248.780 C 207.095 247.284, 208.193 245.867, 207.947 245.631 C 207.701 245.395, 207.050 245.725, 206.500 246.364 M 388 245.363 C 388 245.819, 388.928 247.495, 390.063 249.089 C 391.198 250.682, 391.846 252.439, 391.504 252.993 C 391.162 253.547, 391.359 254, 391.941 254 C 393.639 254, 393.180 252.159, 390.500 248.215 C 389.125 246.191, 388 244.908, 388 245.363 M 341.052 249.403 C 340.346 250.723, 340.009 252.410, 340.305 253.151 C 340.630 253.969, 340.873 253.692, 340.921 252.450 C 340.964 251.322, 341.533 249.868, 342.183 249.217 C 342.834 248.566, 343.135 247.802, 342.852 247.518 C 342.568 247.235, 341.758 248.083, 341.052 249.403 M 445.081 248.849 C 443.448 251.901, 443.786 252.751, 445.602 250.158 C 446.483 248.900, 446.970 247.636, 446.683 247.350 C 446.396 247.063, 445.676 247.738, 445.081 248.849 M 107.250 248.689 C 108.213 248.941, 109.787 248.941, 110.750 248.689 C 111.713 248.438, 110.925 248.232, 109 248.232 C 107.075 248.232, 106.287 248.438, 107.250 248.689 M 97.083 252.372 C 97.313 252.576, 99.750 253.004, 102.500 253.321 C 105.872 253.711, 106.686 253.622, 105 253.049 C 102.502 252.200, 96.296 251.669, 97.083 252.372 M 110.750 254.706 C 111.987 254.944, 114.013 254.944, 115.250 254.706 C 116.487 254.467, 115.475 254.272, 113 254.272 C 110.525 254.272, 109.513 254.467, 110.750 254.706" stroke="none" fill="#3f8ad6" fill-rule="evenodd"/><path d="M 102.749 183.289 C 90.262 187.662, 84.938 196.178, 89.354 204.717 C 91.069 208.033, 100.261 214.997, 108 218.842 C 115.404 222.522, 126.358 231.273, 128.469 235.195 C 132.504 242.694, 127.294 248.244, 115.671 248.831 C 105.616 249.339, 101.124 247.900, 95.884 242.494 C 92.792 239.302, 90.728 238, 88.765 238 C 86.157 238, 86 238.254, 86 242.477 C 86 248.481, 88.154 249.743, 103.826 252.920 C 116.651 255.520, 126.434 253.275, 133.975 246 C 137.882 242.231, 140.013 238.221, 139.978 234.703 C 139.942 231.055, 136.420 224.430, 132.733 221.076 C 129.491 218.126, 120.524 212, 119.448 212 C 118.033 212, 102.264 201.463, 100.259 199.178 C 97.162 195.649, 97.901 191.438, 102.258 187.777 C 108.404 182.614, 121.537 184.805, 126.934 191.894 C 130.469 196.535, 133.402 195.849, 133.806 190.287 C 134.098 186.259, 133.944 186.001, 130.306 184.423 C 126.117 182.607, 124.358 182.255, 115.500 181.462 C 110.774 181.039, 108.067 181.426, 102.749 183.289 M 147.004 182.233 C 147.006 182.930, 148.131 185.714, 149.504 188.419 C 151.961 193.263, 152 193.715, 152 217.568 L 152 241.797 149.064 247.379 C 147.449 250.449, 146.470 253.173, 146.889 253.432 C 147.308 253.690, 158.867 253.812, 172.575 253.701 L 197.500 253.500 197.798 247.250 C 198.077 241.379, 197.961 241, 195.886 241 C 194.670 241, 191.764 242.120, 189.428 243.489 C 184.006 246.667, 175.056 249, 168.290 249 L 163 249 163 217.397 L 163 185.795 171.250 186.163 C 176.455 186.395, 180.756 187.171, 182.904 188.266 C 184.776 189.219, 186.801 190.010, 187.404 190.022 C 188.007 190.034, 189.625 190.924, 191 192 C 192.375 193.076, 194.534 193.966, 195.798 193.978 C 197.983 193.999, 198.081 193.695, 197.798 187.750 L 197.500 181.500 172.250 181.233 C 152.392 181.023, 147.001 181.236, 147.004 182.233 M 203.671 181.662 C 203.307 182.026, 204.132 183.796, 205.505 185.595 C 207.926 188.769, 208 189.344, 208 204.933 L 208 221 198.651 221 C 193.509 221, 185.821 221.294, 181.568 221.654 C 174.787 222.227, 173.729 222.583, 172.982 224.546 C 171.776 227.721, 172.870 231, 175.137 231 C 176.183 231, 178.943 229.777, 181.270 228.283 C 185.097 225.824, 186.571 225.528, 196.750 225.175 L 208 224.784 208 235.718 C 208 246.001, 207.855 246.787, 205.572 248.932 C 201.300 252.946, 203.082 254, 214.138 254 C 225.441 254, 226.935 252.989, 222.563 248.301 C 220.061 245.618, 219.963 245.080, 220.226 235.500 L 220.500 225.500 224.027 225.303 C 228.400 225.059, 228.665 225.246, 233.518 232 C 235.691 235.025, 238.311 238.400, 239.339 239.500 C 243.427 243.873, 244.266 245.936, 243.613 250.016 L 242.976 254 252.488 254 C 261.333 254, 262 253.860, 262 252 C 262 250.900, 261.645 250, 261.212 250 C 259.582 250, 244 233.735, 244 232.033 C 244 231.674, 242.635 229.984, 240.968 228.278 L 237.935 225.176 241.718 223.947 C 247.048 222.214, 252.718 217.473, 255.141 212.723 C 256.788 209.495, 257.130 207.298, 256.824 201.895 C 256.340 193.330, 252.758 187.833, 244.998 183.750 C 239.867 181.050, 239.449 181, 222.052 181 C 212.307 181, 204.035 181.298, 203.671 181.662 M 266.150 181.886 C 265.081 182.563, 265.399 183.568, 267.677 186.713 C 269.259 188.897, 271.293 192.443, 272.197 194.592 C 275.265 201.884, 281.952 219.492, 282.227 221 C 282.377 221.825, 282.745 222.725, 283.045 223 C 283.721 223.620, 290.017 239.995, 290.360 242.022 C 290.497 242.835, 291.372 244.940, 292.305 246.700 C 293.237 248.461, 294 250.550, 294 251.343 C 294 253.177, 296.155 254, 300.959 254 C 305.063 254, 306.584 252.776, 307.984 248.347 C 308.480 246.781, 310.520 241.225, 312.518 236 C 314.516 230.775, 317.522 222.675, 319.199 218 C 320.875 213.325, 322.641 209.072, 323.123 208.550 C 323.605 208.027, 324 207.010, 324 206.289 C 324 205.568, 324.850 203.071, 325.889 200.739 C 326.929 198.408, 328.539 194.475, 329.467 192 C 330.396 189.525, 332.318 186.562, 333.739 185.416 C 337.251 182.582, 335.911 181, 330 181 C 324.291 181, 323.390 181.920, 325.362 185.733 C 326.563 188.056, 326.592 189.110, 325.535 192.012 C 324.836 193.931, 322.807 199.550, 321.025 204.500 C 319.243 209.450, 316.934 215.272, 315.893 217.438 C 314.852 219.604, 314 221.864, 314 222.461 C 314 223.057, 312.625 227.135, 310.945 231.523 C 304.910 247.280, 303.679 249.249, 302.360 245.250 C 302.043 244.287, 300.932 241.592, 299.892 239.261 C 298.851 236.929, 297.998 234.454, 297.995 233.761 C 297.990 232.300, 293.600 221.267, 292.644 220.310 C 292.290 219.956, 292 218.707, 292 217.533 C 292 216.360, 291.623 214.972, 291.163 214.450 C 290.702 213.928, 288.867 209.450, 287.086 204.500 C 285.304 199.550, 283.382 194.276, 282.814 192.781 C 282.092 190.876, 282.115 189.109, 282.891 186.882 C 284.899 181.124, 284.746 180.999, 275.750 181.015 C 271.212 181.024, 266.893 181.416, 266.150 181.886 M 341 182.878 C 341 183.910, 341.601 185.254, 342.335 185.863 C 345.523 188.509, 346.132 194.226, 345.814 218.500 C 345.519 241.071, 345.366 242.764, 343.250 246.938 C 339.687 253.966, 339.723 254, 350.941 254 C 356.601 254, 361.153 253.562, 361.511 252.983 C 361.856 252.424, 360.745 249.175, 359.040 245.764 L 355.941 239.563 356.041 218.207 C 356.144 196.132, 357.024 189.841, 360.552 185.943 C 361.482 184.915, 361.977 183.383, 361.653 182.537 C 361.176 181.296, 359.134 181, 351.031 181 C 341.885 181, 341 181.166, 341 182.878 M 370.499 182.001 C 370.147 182.571, 370.904 184.716, 372.180 186.768 C 374.423 190.375, 374.510 191.347, 374.813 215.861 L 375.127 241.221 372.496 246.597 C 371.049 249.554, 370.148 252.430, 370.492 252.987 C 371.313 254.315, 390.684 254.321, 391.504 252.993 C 391.846 252.439, 391.289 250.752, 390.264 249.243 C 386.741 244.052, 386 240.893, 386 231.060 C 386 219.769, 385.810 220, 395.082 220 C 400.333 220, 401 219.775, 401 218 C 401 216.178, 400.333 216, 393.500 216 L 386 216 386 200.878 L 386 185.755 394.750 186.191 C 402.333 186.569, 404.492 187.118, 410.940 190.313 C 415.032 192.341, 418.942 194, 419.629 194 C 420.936 194, 422.462 186.639, 421.833 183.367 C 421.495 181.612, 419.968 181.484, 396.306 181.233 C 379.752 181.057, 370.920 181.320, 370.499 182.001 M 423.667 181.667 C 422.412 182.921, 423.002 183.838, 426.421 185.951 C 429.126 187.623, 438.762 200.553, 440.853 205.319 C 441.051 205.769, 443.189 209.144, 445.604 212.819 L 449.996 219.500 449.998 230.528 C 450 240.766, 449.791 241.958, 447.077 247.188 C 445.470 250.286, 444.420 253.087, 444.744 253.411 C 445.068 253.735, 449.772 254, 455.198 254 C 466.448 254, 467.657 253.158, 463.831 247.989 C 461.736 245.159, 461.466 243.574, 461.167 232.333 L 460.833 219.825 464.365 214.662 C 466.307 211.823, 471.290 204.550, 475.437 198.500 C 479.585 192.450, 484.212 186.501, 485.719 185.279 C 489.379 182.314, 487.760 180.785, 481.390 181.190 L 476.500 181.500 476.789 186.500 C 477.098 191.843, 477.116 191.808, 464.120 210.742 C 458.947 218.278, 458.571 218.549, 457.267 215.686 C 456.703 214.448, 454.055 210.075, 451.383 205.968 C 442.219 191.880, 440.369 187.031, 443.113 184.287 C 445.468 181.932, 442.773 181, 433.608 181 C 428.507 181, 424.033 181.300, 423.667 181.667 M 220 202.948 L 220 222 228.184 222 C 238.093 222, 243.890 219.634, 247.555 214.096 C 252.182 207.105, 251.705 196.588, 246.494 190.705 C 242.615 186.325, 236.954 184.305, 227.954 184.088 L 220 183.896 220 202.948" stroke="none" fill="#087cf4" fill-rule="evenodd"/></svg>